PathFileType	4	(X/Y/Z)	C:\Users\Graham\Documents\MATLAB\MOtoNMS_v2_2\MyData\ElaboratedData\S7\22-05-17\staticElaborations\Static1\Static\\Static1.trc
DataRate	CameraRate	NumFrames	NumMarkers	Units	OrigDataRate	DataStartFrame
100	100	6	38	mm	100	2
Frame#	Time	V_Sacral			R_ASIS			L_ASIS			R_Knee_Lat			R_Knee_Med			R_Thigh_Upper			R_Thigh_Front			R_Thigh_Rear			L_Knee_Lat			L_Knee_Med			L_Thigh_Upper			L_Thigh_Front			L_Thigh_Rear			R_Ankle_Lat			R_Ankle_Med			R_Shank_Upper			R_Shank_Front			R_Shank_Rear			L_Ankle_Lat			L_Ankle_Med			L_Shank_Upper			L_Shank_Front			L_Shank_Rear			R_Heel			R_MTP1			R_MTP5			L_Heel			L_MTP1			L_MTP5			Clavicle			R_Acromium			L_Acromium			LAJC			RAJC			LHJC			RHJC			LKJC			RKJC		
		X1	Y1	Z1	X2	Y2	Z2	X3	Y3	Z3	X4	Y4	Z4	X5	Y5	Z5	X6	Y6	Z6	X7	Y7	Z7	X8	Y8	Z8	X9	Y9	Z9	X10	Y10	Z10	X11	Y11	Z11	X12	Y12	Z12	X13	Y13	Z13	X14	Y14	Z14	X15	Y15	Z15	X16	Y16	Z16	X17	Y17	Z17	X18	Y18	Z18	X19	Y19	Z19	X20	Y20	Z20	X21	Y21	Z21	X22	Y22	Z22	X23	Y23	Z23	X24	Y24	Z24	X25	Y25	Z25	X26	Y26	Z26	X27	Y27	Z27	X28	Y28	Z28	X29	Y29	Z29	X30	Y30	Z30	X31	Y31	Z31	X32	Y32	Z32	X33	Y33	Z33	X34	Y34	Z34	X35	Y35	Z35	X36	Y36	Z36	X37	Y37	Z37	X38	Y38	Z38	

64	0.630000	-335.211077	1051.956099	41.679158	-138.388457	1016.663438	178.751858	-169.535197	1016.986328	-92.375455	-200.653501	514.526538	189.732877	-200.240099	514.029288	77.608635	-121.685316	801.924448	133.679026	-148.654236	687.745665	96.914678	-125.420819	685.875427	172.522814	-223.401589	516.487582	-120.029473	-225.834708	505.225199	-2.169359	-136.236241	804.441350	-49.624071	-154.951440	688.158486	-8.088587	-140.727484	681.756085	-79.071081	-309.267254	80.885899	167.361707	-260.187442	82.753441	91.136302	-177.668937	344.353908	159.341637	-217.034090	241.801245	112.482167	-231.813891	238.419333	187.292617	-294.822115	73.424637	-121.402613	-261.605305	89.279648	-40.236654	-195.294105	334.195298	-100.247117	-222.354903	221.166735	-61.380173	-232.340940	225.447608	-132.044369	-355.512505	35.509204	102.633001	-140.216407	54.732093	168.699087	-165.299561	48.504551	228.459379	-348.654991	34.638886	-69.124873	-121.876757	51.722622	-86.907678	-147.477889	42.552586	-156.494067	-135.976375	1403.363909	39.870515	-225.045131	1469.085332	233.732100	-236.405176	1476.488657	-155.057173	-278.213710	81.352143	-80.819634	-284.727348	81.819670	129.249005	-235.596732	936.267539	-45.530557	-213.373615	936.037157	147.918064	-224.618148	510.856390	-61.099416	-200.446800	514.277913	133.670756	
65	0.640000	-336.010137	1051.915324	42.841883	-138.968767	1016.627771	179.594821	-170.547191	1017.008600	-91.476656	-200.795134	514.466511	190.160011	-200.614215	514.123383	78.053682	-122.277560	801.981505	134.280373	-149.218562	687.777638	97.455249	-125.755256	685.925062	173.037430	-223.823300	516.571833	-119.502077	-226.114875	505.184673	-1.586291	-137.097388	804.537415	-48.917746	-155.503651	688.218294	-7.435967	-141.336881	681.893375	-78.443581	-309.230552	80.882633	167.334643	-260.228493	82.740158	91.069425	-177.751354	344.333041	159.470042	-217.133739	241.822031	112.558182	-231.754042	238.324780	187.391671	-294.846103	73.435056	-121.354178	-261.627552	89.250777	-40.190203	-195.542363	334.270313	-99.937331	-222.490320	221.178812	-61.192074	-232.518933	225.526180	-131.828759	-355.579061	35.470633	102.585190	-140.223748	54.719092	168.638217	-165.312155	48.591705	228.419934	-348.657440	34.623487	-69.116281	-121.889862	51.741344	-86.898330	-147.482042	42.577197	-156.482959	-136.392087	1403.294473	40.683980	-225.095142	1469.076304	234.681893	-237.019152	1476.502841	-154.077154	-278.236828	81.342916	-80.772191	-284.729523	81.811395	129.202034	-236.517613	936.268150	-44.546625	-213.986455	935.996428	148.862463	-224.969087	510.878253	-60.544184	-200.704674	514.294947	134.106847	
66	0.650000	-336.812142	1051.872771	44.035374	-139.539638	1016.581668	180.446757	-171.573360	1017.034700	-90.566091	-200.927250	514.402474	190.591727	-201.002065	514.215456	78.506304	-122.918999	802.024351	134.872395	-149.785982	687.800478	97.998121	-126.082187	685.969583	173.550423	-224.250422	516.667108	-118.970565	-226.381449	505.156601	-1.000991	-137.962740	804.645817	-48.213748	-156.053281	688.289289	-6.784972	-141.945333	682.040204	-77.817607	-309.188328	80.883837	167.303955	-260.261944	82.721800	90.995568	-177.826869	344.310995	159.594891	-217.232050	241.841025	112.628553	-231.678089	238.226571	187.488716	-294.869153	73.448502	-121.304907	-261.645206	89.224757	-40.145367	-195.796995	334.352368	-99.632752	-222.623066	221.197155	-61.006170	-232.703130	225.611173	-131.616116	-355.653593	35.444814	102.536359	-140.226092	54.703198	168.572409	-165.318663	48.675518	228.375610	-348.658386	34.612994	-69.106836	-121.902292	51.761428	-86.893125	-147.486166	42.599269	-156.475805	-136.763161	1403.232324	41.518339	-225.113631	1469.066256	235.655009	-237.627653	1476.520390	-153.071726	-278.257179	81.336630	-80.725137	-284.725136	81.802819	129.149761	-237.449305	936.270431	-43.549391	-214.593261	935.947192	149.818135	-225.315935	510.911855	-59.985778	-200.964658	514.308965	134.549015	
67	0.660000	-337.614649	1051.827914	45.258036	-140.100512	1016.524493	181.305891	-172.611885	1017.068113	-89.646254	-201.051143	514.334432	191.031860	-201.405975	514.304515	78.970807	-123.595395	802.055963	135.456595	-150.346683	687.820651	98.546169	-126.400547	686.008887	174.061701	-224.691956	516.775785	-118.436697	-226.647579	505.141429	-0.417805	-138.813735	804.771321	-47.513410	-156.604935	688.372548	-6.136981	-142.555303	682.197273	-77.193636	-309.141410	80.887903	167.272307	-260.285532	82.697980	90.917043	-177.897109	344.288052	159.721919	-217.329935	241.857797	112.698192	-231.586868	238.123754	187.588500	-294.889646	73.465155	-121.256833	-261.656495	89.202595	-40.104085	-196.064102	334.444588	-99.337008	-222.755341	221.223795	-60.825020	-232.898240	225.706160	-131.412237	-355.731495	35.432550	102.489043	-140.223545	54.684410	168.503066	-165.318979	48.753562	228.327176	-348.657765	34.608537	-69.097276	-121.912833	51.780054	-86.892419	-147.489358	42.615081	-156.473070	-137.080202	1403.181441	42.374492	-225.100068	1469.055557	236.651191	-238.235219	1476.540503	-152.041030	-278.273071	81.333875	-80.680459	-284.713471	81.792942	129.094675	-238.389142	936.276212	-42.542933	-215.192271	935.888339	150.781474	-225.669768	510.958607	-59.427251	-201.228559	514.319473	135.001334	
68	0.670000	-338.414798	1051.780707	46.507011	-140.651118	1016.456070	182.170304	-173.660244	1017.112754	-88.720070	-201.169605	514.262417	191.485183	-201.828795	514.389519	79.452274	-124.288809	802.079609	136.035729	-150.891570	687.845101	99.102688	-126.709988	686.042746	174.571854	-225.158420	516.899863	-117.902280	-226.927742	505.139014	0.158036	-139.629420	804.918314	-46.817532	-157.165392	688.468412	-5.493169	-143.170516	682.364747	-76.571652	-309.091080	80.892697	167.242827	-260.298145	82.668682	90.836807	-177.964767	344.264555	159.857732	-217.428744	241.871950	112.773181	-231.482572	238.015319	187.696683	-294.905808	73.485084	-121.212527	-261.660059	89.185294	-40.068402	-196.350368	334.549886	-99.053458	-222.890237	221.260542	-60.651292	-233.110171	225.814816	-131.223388	-355.805178	35.432716	102.446147	-140.216652	54.662951	168.432160	-165.313328	48.823254	228.275921	-348.655862	34.610735	-69.088717	-121.920325	51.793818	-86.895811	-147.490563	42.620843	-156.474396	-137.336692	1403.145202	43.253012	-225.053841	1469.045715	237.669908	-238.846569	1476.562191	-150.985402	-278.282933	81.335189	-80.640464	-284.694613	81.780690	129.039817	-239.333941	936.287736	-41.531981	-215.781915	935.819192	151.748422	-226.043081	511.019439	-58.872122	-201.499200	514.325968	135.468728	
69	0.680000	-339.209568	1051.731672	47.778183	-141.191352	1016.376559	183.037854	-174.715456	1017.172486	-87.790767	-201.286716	514.186442	191.956817	-202.273628	514.469408	79.955953	-124.980588	802.098169	136.613140	-151.414514	687.879600	99.670607	-127.010895	686.070690	175.082030	-225.660344	517.040648	-117.369223	-227.235185	505.148529	0.720718	-140.389390	805.090156	-46.126723	-157.742770	688.576550	-4.854878	-143.795514	682.542207	-75.951657	-309.038971	80.895696	167.218839	-260.300125	82.634293	90.758199	-178.033411	344.240793	160.009112	-217.530156	241.883142	112.860065	-231.368578	237.900313	187.819191	-294.916010	73.508235	-121.174885	-261.655353	89.173813	-40.040207	-196.662066	334.670413	-98.784916	-223.031538	221.308681	-60.487558	-233.345499	225.940369	-131.055544	-355.864053	35.442186	102.410856	-140.206321	54.639261	168.362055	-165.302218	48.882045	228.223528	-348.653425	34.619424	-69.082608	-121.923938	51.799330	-86.901924	-147.488766	42.613515	-156.478391	-137.530835	1403.125579	44.153790	-224.974216	1469.039320	238.710266	-239.466170	1476.584243	-149.905435	-278.285681	81.341024	-80.607546	-284.669548	81.764994	128.988519	-240.280387	936.307436	-40.521592	-216.360936	935.739542	152.714652	-226.447764	511.094588	-58.324252	-201.780172	514.327925	135.956385	
